#define heart_width 32
#define heart_height 30
static unsigned char heart_bits[] = {
   0xc0, 0x0f, 0xf0, 0x03, 0xb0, 0x38, 0x3c, 0x0e, 0x18, 0x60, 0x06, 0x18,
   0x04, 0xc0, 0x03, 0x20, 0x06, 0x80, 0x01, 0x60, 0x02, 0x80, 0x01, 0x40,
   0x03, 0x00, 0x00, 0xc0, 0x01, 0x00, 0x00, 0x80, 0x01, 0x00, 0x00, 0x80,
   0x01, 0x00, 0x00, 0x80, 0x03, 0x00, 0x00, 0xc0, 0x03, 0x00, 0x00, 0xc0,
   0x02, 0x00, 0x00, 0x40, 0x02, 0x00, 0x00, 0x60, 0x04, 0x00, 0x00, 0x20,
   0x0c, 0x00, 0x00, 0x30, 0x18, 0x00, 0x00, 0x18, 0x10, 0x00, 0x00, 0x0c,
   0x60, 0x00, 0x00, 0x06, 0xc0, 0x00, 0x00, 0x03, 0x80, 0x01, 0x80, 0x01,
   0x00, 0x03, 0xc0, 0x00, 0x00, 0x06, 0x60, 0x00, 0x00, 0x0c, 0x30, 0x00,
   0x00, 0x18, 0x18, 0x00, 0x00, 0x30, 0x0c, 0x00, 0x00, 0x60, 0x06, 0x00,
   0x00, 0xc0, 0x03, 0x00, 0x00, 0x80, 0x01, 0x00, 0x00, 0x00, 0x00, 0x00 };
